<svg width="1108" height="50" viewBox="0 0 1108 50" fill="none" xmlns="http://www.w3.org/2000/svg">
<path d="M2.556 36V10.8H18.576V13.896H6.372V21.744H17.496V24.768H6.372V32.904H18.576V36H2.556ZM27.9824 36L21.2864 18.144H25.2824L30.2504 32.364L35.2184 18.144H39.1784L32.5184 36H27.9824ZM49.7523 36.432C48.0003 36.432 46.4403 36.048 45.0723 35.28C43.7283 34.488 42.6723 33.396 41.9043 32.004C41.1363 30.612 40.7523 28.992 40.7523 27.144C40.7523 25.272 41.1243 23.628 41.8683 22.212C42.6363 20.796 43.6923 19.692 45.0363 18.9C46.4043 18.108 47.9883 17.712 49.7883 17.712C51.5403 17.712 53.0643 18.108 54.3603 18.9C55.6563 19.668 56.6643 20.7 57.3843 21.996C58.1043 23.292 58.4643 24.72 58.4643 26.28C58.4643 26.52 58.4523 26.784 58.4283 27.072C58.4283 27.336 58.4163 27.636 58.3923 27.972H44.4963C44.6163 29.7 45.1803 31.02 46.1883 31.932C47.2203 32.82 48.4083 33.264 49.7523 33.264C50.8323 33.264 51.7323 33.024 52.4523 32.544C53.1963 32.04 53.7483 31.368 54.1083 30.528H57.9243C57.4443 32.208 56.4843 33.612 55.0443 34.74C53.6283 35.868 51.8643 36.432 49.7523 36.432ZM49.7523 20.844C48.4803 20.844 47.3523 21.228 46.3683 21.996C45.3843 22.74 44.7843 23.868 44.5683 25.38H54.6483C54.5763 23.988 54.0843 22.884 53.1723 22.068C52.2603 21.252 51.1203 20.844 49.7523 20.844ZM62.4237 36V18.144H65.8437L66.1677 21.528C66.7917 20.352 67.6557 19.428 68.7597 18.756C69.8877 18.06 71.2437 17.712 72.8277 17.712V21.708H71.7837C70.7277 21.708 69.7797 21.888 68.9397 22.248C68.1237 22.584 67.4637 23.172 66.9597 24.012C66.4797 24.828 66.2397 25.968 66.2397 27.432V36H62.4237ZM74.6235 36L83.9115 10.8H88.0875L97.3035 36H93.2715L91.1115 29.844H80.8155L78.6555 36H74.6235ZM81.8955 26.82H90.0315L85.9635 15.336L81.8955 26.82ZM110.718 36.432C109.326 36.432 108.09 36.156 107.01 35.604C105.954 35.052 105.114 34.272 104.49 33.264L104.094 36H100.674V10.08H104.49V20.916C105.066 20.076 105.858 19.332 106.866 18.684C107.874 18.036 109.17 17.712 110.754 17.712C112.482 17.712 114.006 18.12 115.326 18.936C116.646 19.752 117.678 20.868 118.422 22.284C119.19 23.7 119.574 25.308 119.574 27.108C119.574 28.908 119.19 30.516 118.422 31.932C117.678 33.324 116.646 34.428 115.326 35.244C114.006 36.036 112.47 36.432 110.718 36.432ZM110.07 33.12C111.702 33.12 113.046 32.568 114.102 31.464C115.158 30.336 115.686 28.872 115.686 27.072C115.686 25.896 115.446 24.852 114.966 23.94C114.486 23.028 113.826 22.32 112.986 21.816C112.146 21.288 111.174 21.024 110.07 21.024C108.438 21.024 107.094 21.588 106.038 22.716C105.006 23.844 104.49 25.296 104.49 27.072C104.49 28.872 105.006 30.336 106.038 31.464C107.094 32.568 108.438 33.12 110.07 33.12ZM125.861 14.76C125.141 14.76 124.541 14.544 124.061 14.112C123.605 13.656 123.377 13.092 123.377 12.42C123.377 11.748 123.605 11.196 124.061 10.764C124.541 10.308 125.141 10.08 125.861 10.08C126.581 10.08 127.169 10.308 127.625 10.764C128.105 11.196 128.345 11.748 128.345 12.42C128.345 13.092 128.105 13.656 127.625 14.112C127.169 14.544 126.581 14.76 125.861 14.76ZM123.953 36V18.144H127.769V36H123.953ZM132.807 36V10.08H136.623V36H132.807ZM143.615 14.76C142.895 14.76 142.295 14.544 141.815 14.112C141.359 13.656 141.131 13.092 141.131 12.42C141.131 11.748 141.359 11.196 141.815 10.764C142.295 10.308 142.895 10.08 143.615 10.08C144.335 10.08 144.923 10.308 145.379 10.764C145.859 11.196 146.099 11.748 146.099 12.42C146.099 13.092 145.859 13.656 145.379 14.112C144.923 14.544 144.335 14.76 143.615 14.76ZM141.707 36V18.144H145.523V36H141.707ZM158.048 36C156.296 36 154.904 35.58 153.872 34.74C152.84 33.876 152.324 32.352 152.324 30.168V21.348H149.264V18.144H152.324L152.792 13.608H156.14V18.144H161.18V21.348H156.14V30.168C156.14 31.152 156.344 31.836 156.752 32.22C157.184 32.58 157.916 32.76 158.948 32.76H161V36H158.048ZM167.203 43.92L171.487 34.524H170.443L163.387 18.144H167.527L172.999 31.356L178.723 18.144H182.755L171.235 43.92H167.203Z" fill="#432818"/>
<path d="M230.92 26.94C230.493 27.8867 230.06 28.68 229.62 29.32C229.193 29.9467 228.687 30.42 228.1 30.74C227.513 31.0467 226.767 31.2 225.86 31.2C225.487 31.2 225.133 31.1733 224.8 31.12C224.48 31.0667 224.187 30.9933 223.92 30.9V29.12C224.187 29.24 224.473 29.34 224.78 29.42C225.087 29.4867 225.407 29.52 225.74 29.52C226.233 29.52 226.653 29.4533 227 29.32C227.36 29.1733 227.673 28.94 227.94 28.62C228.22 28.3 228.48 27.8733 228.72 27.34L223.22 16.72H225.2L229.18 24.58C229.233 24.6733 229.287 24.7867 229.34 24.92C229.393 25.04 229.447 25.1667 229.5 25.3C229.567 25.4333 229.62 25.56 229.66 25.68H229.74C229.78 25.5867 229.82 25.48 229.86 25.36C229.913 25.2267 229.96 25.1 230 24.98C230.053 24.8467 230.1 24.7333 230.14 24.64L233.58 16.72H235.48L230.92 26.94ZM241.09 31.2C240.143 31.2 239.297 31.0067 238.55 30.62C237.817 30.2333 237.237 29.6333 236.81 28.82C236.397 28.0067 236.19 26.9667 236.19 25.7C236.19 24.38 236.41 23.3067 236.85 22.48C237.29 21.6533 237.883 21.0467 238.63 20.66C239.39 20.2733 240.25 20.08 241.21 20.08C241.757 20.08 242.283 20.14 242.79 20.26C243.297 20.3667 243.71 20.5 244.03 20.66L243.49 22.12C243.17 22 242.797 21.8867 242.37 21.78C241.943 21.6733 241.543 21.62 241.17 21.62C240.45 21.62 239.857 21.7733 239.39 22.08C238.923 22.3867 238.577 22.84 238.35 23.44C238.123 24.04 238.01 24.7867 238.01 25.68C238.01 26.5333 238.123 27.26 238.35 27.86C238.577 28.46 238.917 28.9133 239.37 29.22C239.823 29.5267 240.39 29.68 241.07 29.68C241.657 29.68 242.17 29.62 242.61 29.5C243.063 29.38 243.477 29.2333 243.85 29.06V30.62C243.49 30.8067 243.09 30.9467 242.65 31.04C242.223 31.1467 241.703 31.2 241.09 31.2ZM254.559 31H252.779V21.74H249.619C249.486 23.4333 249.319 24.88 249.119 26.08C248.919 27.2667 248.666 28.2333 248.359 28.98C248.053 29.7267 247.686 30.2733 247.259 30.62C246.833 30.9667 246.333 31.14 245.759 31.14C245.586 31.14 245.413 31.1267 245.239 31.1C245.079 31.0867 244.946 31.0533 244.839 31V29.68C244.919 29.7067 245.006 29.7267 245.099 29.74C245.193 29.7533 245.286 29.76 245.379 29.76C245.673 29.76 245.939 29.64 246.179 29.4C246.419 29.16 246.633 28.7933 246.819 28.3C247.019 27.8067 247.199 27.1867 247.359 26.44C247.519 25.68 247.659 24.7867 247.779 23.76C247.899 22.7333 248.006 21.5733 248.099 20.28H254.559V31ZM256.282 20.28H258.162L260.482 26.38C260.615 26.74 260.735 27.0867 260.842 27.42C260.962 27.7533 261.068 28.08 261.162 28.4C261.255 28.7067 261.328 29.0067 261.382 29.3H261.462C261.542 28.9667 261.668 28.5333 261.842 28C262.015 27.4533 262.195 26.9067 262.382 26.36L264.562 20.28H266.462L261.842 32.48C261.588 33.1467 261.288 33.7267 260.942 34.22C260.608 34.7267 260.195 35.1133 259.702 35.38C259.222 35.66 258.635 35.8 257.942 35.8C257.622 35.8 257.342 35.78 257.102 35.74C256.862 35.7133 256.655 35.68 256.482 35.64V34.24C256.628 34.2667 256.802 34.2933 257.002 34.32C257.215 34.3467 257.435 34.36 257.662 34.36C258.075 34.36 258.428 34.28 258.722 34.12C259.028 33.9733 259.288 33.7533 259.502 33.46C259.715 33.18 259.895 32.8467 260.042 32.46L260.602 31.04L256.282 20.28ZM274.697 20.28V21.76H269.917V31H268.157V20.28H274.697ZM278.469 26.82C278.469 26.94 278.463 27.1133 278.449 27.34C278.449 27.5533 278.443 27.7867 278.429 28.04C278.416 28.28 278.403 28.5133 278.389 28.74C278.376 28.9533 278.363 29.1267 278.349 29.26L284.089 20.28H286.249V31H284.609V24.68C284.609 24.4667 284.609 24.1867 284.609 23.84C284.623 23.4933 284.636 23.1533 284.649 22.82C284.663 22.4733 284.676 22.2133 284.689 22.04L278.989 31H276.809V20.28H278.469V26.82Z" fill="black"/>
<path d="M315.06 18.1C314.3 18.1 313.613 18.2333 313 18.5C312.387 18.7533 311.867 19.1333 311.44 19.64C311.013 20.1333 310.687 20.74 310.46 21.46C310.233 22.1667 310.12 22.9667 310.12 23.86C310.12 25.0333 310.3 26.0533 310.66 26.92C311.033 27.7867 311.58 28.4533 312.3 28.92C313.033 29.3867 313.947 29.62 315.04 29.62C315.667 29.62 316.26 29.5667 316.82 29.46C317.38 29.3533 317.927 29.22 318.46 29.06V30.62C317.927 30.82 317.373 30.9667 316.8 31.06C316.24 31.1533 315.567 31.2 314.78 31.2C313.327 31.2 312.113 30.9 311.14 30.3C310.167 29.7 309.433 28.8467 308.94 27.74C308.46 26.6333 308.22 25.3333 308.22 23.84C308.22 22.76 308.367 21.7733 308.66 20.88C308.967 19.9867 309.407 19.2133 309.98 18.56C310.567 17.9067 311.287 17.4067 312.14 17.06C312.993 16.7 313.973 16.52 315.08 16.52C315.813 16.52 316.52 16.5933 317.2 16.74C317.88 16.8867 318.487 17.0933 319.02 17.36L318.3 18.88C317.86 18.68 317.367 18.5 316.82 18.34C316.287 18.18 315.7 18.1 315.06 18.1ZM330.657 25.62C330.657 26.5133 330.537 27.3067 330.297 28C330.07 28.68 329.737 29.26 329.297 29.74C328.87 30.22 328.343 30.5867 327.717 30.84C327.103 31.08 326.417 31.2 325.657 31.2C324.95 31.2 324.297 31.08 323.697 30.84C323.097 30.5867 322.577 30.22 322.137 29.74C321.697 29.26 321.35 28.68 321.097 28C320.857 27.3067 320.737 26.5133 320.737 25.62C320.737 24.4333 320.937 23.4333 321.337 22.62C321.737 21.7933 322.31 21.1667 323.057 20.74C323.803 20.3 324.69 20.08 325.717 20.08C326.69 20.08 327.543 20.3 328.277 20.74C329.023 21.1667 329.603 21.7933 330.017 22.62C330.443 23.4333 330.657 24.4333 330.657 25.62ZM322.557 25.62C322.557 26.46 322.663 27.1933 322.877 27.82C323.103 28.4333 323.45 28.9067 323.917 29.24C324.383 29.5733 324.977 29.74 325.697 29.74C326.417 29.74 327.01 29.5733 327.477 29.24C327.943 28.9067 328.283 28.4333 328.497 27.82C328.723 27.1933 328.837 26.46 328.837 25.62C328.837 24.7667 328.723 24.04 328.497 23.44C328.27 22.84 327.923 22.38 327.457 22.06C327.003 21.7267 326.41 21.56 325.677 21.56C324.583 21.56 323.79 21.92 323.297 22.64C322.803 23.36 322.557 24.3533 322.557 25.62ZM332.886 24.56C332.886 23 333.039 21.6733 333.346 20.58C333.666 19.4733 334.153 18.5933 334.806 17.94C335.473 17.2733 336.326 16.8267 337.366 16.6C338.233 16.4133 339.079 16.2467 339.906 16.1C340.733 15.9533 341.506 15.82 342.226 15.7L342.526 17.24C342.179 17.2933 341.793 17.36 341.366 17.44C340.939 17.5067 340.506 17.58 340.066 17.66C339.626 17.7267 339.199 17.8 338.786 17.88C338.386 17.9467 338.033 18.0133 337.726 18.08C337.286 18.1733 336.893 18.3333 336.546 18.56C336.199 18.7733 335.899 19.0667 335.646 19.44C335.406 19.8133 335.213 20.2733 335.066 20.82C334.919 21.3667 334.833 22.0133 334.806 22.76H334.926C335.113 22.5067 335.366 22.2467 335.686 21.98C336.019 21.7133 336.413 21.4867 336.866 21.3C337.333 21.1133 337.859 21.02 338.446 21.02C339.379 21.02 340.153 21.2267 340.766 21.64C341.393 22.04 341.859 22.6 342.166 23.32C342.486 24.04 342.646 24.88 342.646 25.84C342.646 27.0267 342.439 28.02 342.026 28.82C341.613 29.62 341.039 30.22 340.306 30.62C339.573 31.0067 338.719 31.2 337.746 31.2C337.013 31.2 336.346 31.06 335.746 30.78C335.146 30.4867 334.633 30.06 334.206 29.5C333.779 28.94 333.453 28.2467 333.226 27.42C332.999 26.5933 332.886 25.64 332.886 24.56ZM337.886 29.74C338.473 29.74 338.979 29.62 339.406 29.38C339.846 29.14 340.186 28.7467 340.426 28.2C340.666 27.6533 340.786 26.9267 340.786 26.02C340.786 24.9267 340.579 24.0667 340.166 23.44C339.766 22.8 339.099 22.48 338.166 22.48C337.579 22.48 337.046 22.6133 336.566 22.88C336.086 23.1333 335.686 23.4267 335.366 23.76C335.046 24.0933 334.819 24.3733 334.686 24.6C334.686 25.2533 334.733 25.8867 334.826 26.5C334.919 27.1133 335.079 27.6667 335.306 28.16C335.546 28.64 335.873 29.0267 336.286 29.32C336.713 29.6 337.246 29.74 337.886 29.74ZM345.419 31V20.28H347.179V24.68H349.959C350.892 24.68 351.659 24.7933 352.259 25.02C352.859 25.2467 353.305 25.5867 353.599 26.04C353.892 26.48 354.039 27.04 354.039 27.72C354.039 28.3867 353.892 28.9667 353.599 29.46C353.319 29.9533 352.872 30.3333 352.259 30.6C351.659 30.8667 350.865 31 349.879 31H345.419ZM349.719 29.58C350.479 29.58 351.099 29.4533 351.579 29.2C352.059 28.9333 352.299 28.4733 352.299 27.82C352.299 27.1667 352.079 26.7267 351.639 26.5C351.199 26.26 350.565 26.14 349.739 26.14H347.179V29.58H349.719ZM355.819 31V20.28H357.579V31H355.819ZM368.385 21.76H364.885V31H363.145V21.76H359.685V20.28H368.385V21.76ZM372.157 26.82C372.157 26.94 372.15 27.1133 372.137 27.34C372.137 27.5533 372.13 27.7867 372.117 28.04C372.104 28.28 372.09 28.5133 372.077 28.74C372.064 28.9533 372.05 29.1267 372.037 29.26L377.777 20.28H379.937V31H378.297V24.68C378.297 24.4667 378.297 24.1867 378.297 23.84C378.31 23.4933 378.324 23.1533 378.337 22.82C378.35 22.4733 378.364 22.2133 378.377 22.04L372.677 31H370.497V20.28H372.157V26.82ZM384.008 31H381.968L385.028 26.5C384.615 26.3933 384.215 26.2267 383.828 26C383.442 25.76 383.128 25.4333 382.888 25.02C382.648 24.5933 382.528 24.0667 382.528 23.44C382.528 22.4133 382.875 21.6333 383.568 21.1C384.262 20.5533 385.182 20.28 386.328 20.28H391.128V31H389.368V26.74H386.768L384.008 31ZM384.228 23.46C384.228 24.0733 384.455 24.5333 384.908 24.84C385.375 25.1333 386.022 25.28 386.848 25.28H389.368V21.74H386.508C385.695 21.74 385.108 21.9 384.748 22.22C384.402 22.54 384.228 22.9533 384.228 23.46Z" fill="black"/>
<path d="M413.94 31V16.72H424.66V31H422.88V18.3H415.74V31H413.94ZM437.649 25.62C437.649 26.5133 437.529 27.3067 437.289 28C437.062 28.68 436.729 29.26 436.289 29.74C435.862 30.22 435.336 30.5867 434.709 30.84C434.096 31.08 433.409 31.2 432.649 31.2C431.942 31.2 431.289 31.08 430.689 30.84C430.089 30.5867 429.569 30.22 429.129 29.74C428.689 29.26 428.342 28.68 428.089 28C427.849 27.3067 427.729 26.5133 427.729 25.62C427.729 24.4333 427.929 23.4333 428.329 22.62C428.729 21.7933 429.302 21.1667 430.049 20.74C430.796 20.3 431.682 20.08 432.709 20.08C433.682 20.08 434.536 20.3 435.269 20.74C436.016 21.1667 436.596 21.7933 437.009 22.62C437.436 23.4333 437.649 24.4333 437.649 25.62ZM429.549 25.62C429.549 26.46 429.656 27.1933 429.869 27.82C430.096 28.4333 430.442 28.9067 430.909 29.24C431.376 29.5733 431.969 29.74 432.689 29.74C433.409 29.74 434.002 29.5733 434.469 29.24C434.936 28.9067 435.276 28.4333 435.489 27.82C435.716 27.1933 435.829 26.46 435.829 25.62C435.829 24.7667 435.716 24.04 435.489 23.44C435.262 22.84 434.916 22.38 434.449 22.06C433.996 21.7267 433.402 21.56 432.669 21.56C431.576 21.56 430.782 21.92 430.289 22.64C429.796 23.36 429.549 24.3533 429.549 25.62ZM451.938 20.28V31H450.358V24.16C450.358 23.88 450.365 23.5867 450.378 23.28C450.405 22.9733 450.432 22.6733 450.458 22.38H450.398L446.898 31H445.418L442.018 22.38H441.958C441.985 22.6733 441.998 22.9733 441.998 23.28C442.012 23.5867 442.018 23.9 442.018 24.22V31H440.438V20.28H442.778L446.158 28.9L449.598 20.28H451.938ZM464.68 25.62C464.68 26.5133 464.56 27.3067 464.32 28C464.093 28.68 463.76 29.26 463.32 29.74C462.893 30.22 462.367 30.5867 461.74 30.84C461.127 31.08 460.44 31.2 459.68 31.2C458.973 31.2 458.32 31.08 457.72 30.84C457.12 30.5867 456.6 30.22 456.16 29.74C455.72 29.26 455.373 28.68 455.12 28C454.88 27.3067 454.76 26.5133 454.76 25.62C454.76 24.4333 454.96 23.4333 455.36 22.62C455.76 21.7933 456.333 21.1667 457.08 20.74C457.827 20.3 458.713 20.08 459.74 20.08C460.713 20.08 461.567 20.3 462.3 20.74C463.047 21.1667 463.627 21.7933 464.04 22.62C464.467 23.4333 464.68 24.4333 464.68 25.62ZM456.58 25.62C456.58 26.46 456.687 27.1933 456.9 27.82C457.127 28.4333 457.473 28.9067 457.94 29.24C458.407 29.5733 459 29.74 459.72 29.74C460.44 29.74 461.033 29.5733 461.5 29.24C461.967 28.9067 462.307 28.4333 462.52 27.82C462.747 27.1933 462.86 26.46 462.86 25.62C462.86 24.7667 462.747 24.04 462.52 23.44C462.293 22.84 461.947 22.38 461.48 22.06C461.027 21.7267 460.433 21.56 459.7 21.56C458.607 21.56 457.813 21.92 457.32 22.64C456.827 23.36 456.58 24.3533 456.58 25.62ZM481.99 20.28V29.54H483.55V34.7H481.79V31H467.47V20.28H469.23V29.52H473.85V20.28H475.61V29.52H480.25V20.28H481.99ZM490.535 24.68C491.468 24.68 492.241 24.7933 492.855 25.02C493.468 25.2467 493.928 25.5867 494.235 26.04C494.555 26.48 494.715 27.04 494.715 27.72C494.715 28.3867 494.561 28.9667 494.255 29.46C493.961 29.9533 493.501 30.3333 492.875 30.6C492.248 30.8667 491.441 31 490.455 31H485.595V20.28H487.355V24.68H490.535ZM492.955 27.82C492.955 27.1667 492.721 26.7267 492.255 26.5C491.801 26.26 491.161 26.14 490.335 26.14H487.355V29.58H490.375C491.121 29.58 491.735 29.4467 492.215 29.18C492.708 28.9133 492.955 28.46 492.955 27.82Z" fill="black"/>
<path d="M529.4 23.84C529.4 24.9467 529.26 25.9533 528.98 26.86C528.7 27.7533 528.28 28.5267 527.72 29.18C527.173 29.8333 526.487 30.3333 525.66 30.68C524.847 31.0267 523.9 31.2 522.82 31.2C521.7 31.2 520.727 31.0267 519.9 30.68C519.073 30.32 518.387 29.82 517.84 29.18C517.293 28.5267 516.887 27.7467 516.62 26.84C516.353 25.9333 516.22 24.9267 516.22 23.82C516.22 22.3533 516.46 21.0733 516.94 19.98C517.42 18.8867 518.147 18.0333 519.12 17.42C520.107 16.8067 521.347 16.5 522.84 16.5C524.267 16.5 525.467 16.8067 526.44 17.42C527.413 18.02 528.147 18.8733 528.64 19.98C529.147 21.0733 529.4 22.36 529.4 23.84ZM518.12 23.84C518.12 25.04 518.287 26.0733 518.62 26.94C518.953 27.8067 519.467 28.4733 520.16 28.94C520.867 29.4067 521.753 29.64 522.82 29.64C523.9 29.64 524.78 29.4067 525.46 28.94C526.153 28.4733 526.667 27.8067 527 26.94C527.333 26.0733 527.5 25.04 527.5 23.84C527.5 22.04 527.127 20.6333 526.38 19.62C525.633 18.5933 524.453 18.08 522.84 18.08C521.76 18.08 520.867 18.3133 520.16 18.78C519.467 19.2333 518.953 19.8933 518.62 20.76C518.287 21.6133 518.12 22.64 518.12 23.84ZM541.385 20.28V31H539.625V21.78H534.085V31H532.325V20.28H541.385ZM544.805 31V20.28H546.565V24.68H549.345C550.279 24.68 551.045 24.7933 551.645 25.02C552.245 25.2467 552.692 25.5867 552.985 26.04C553.279 26.48 553.425 27.04 553.425 27.72C553.425 28.3867 553.279 28.9667 552.985 29.46C552.705 29.9533 552.259 30.3333 551.645 30.6C551.045 30.8667 550.252 31 549.265 31H544.805ZM549.105 29.58C549.865 29.58 550.485 29.4533 550.965 29.2C551.445 28.9333 551.685 28.4733 551.685 27.82C551.685 27.1667 551.465 26.7267 551.025 26.5C550.585 26.26 549.952 26.14 549.125 26.14H546.565V29.58H549.105ZM555.205 31V20.28H556.965V31H555.205ZM567.772 21.76H564.272V31H562.532V21.76H559.072V20.28H567.772V21.76ZM580.277 20.08C581.597 20.08 582.657 20.54 583.457 21.46C584.27 22.38 584.677 23.7667 584.677 25.62C584.677 26.8333 584.49 27.86 584.117 28.7C583.757 29.5267 583.243 30.1533 582.577 30.58C581.923 30.9933 581.15 31.2 580.257 31.2C579.71 31.2 579.223 31.1267 578.797 30.98C578.37 30.8333 578.003 30.6467 577.697 30.42C577.403 30.18 577.15 29.92 576.937 29.64H576.817C576.843 29.8667 576.87 30.1533 576.897 30.5C576.923 30.8467 576.937 31.1467 576.937 31.4V35.8H575.177V20.28H576.617L576.857 21.74H576.937C577.15 21.4333 577.403 21.1533 577.697 20.9C578.003 20.6467 578.363 20.4467 578.777 20.3C579.203 20.1533 579.703 20.08 580.277 20.08ZM579.957 21.56C579.237 21.56 578.657 21.7 578.217 21.98C577.777 22.2467 577.457 22.6533 577.257 23.2C577.057 23.7467 576.95 24.44 576.937 25.28V25.62C576.937 26.5 577.03 27.2467 577.217 27.86C577.403 28.4733 577.717 28.94 578.157 29.26C578.61 29.58 579.223 29.74 579.997 29.74C580.65 29.74 581.183 29.56 581.597 29.2C582.023 28.84 582.337 28.3533 582.537 27.74C582.75 27.1133 582.857 26.4 582.857 25.6C582.857 24.3733 582.617 23.3933 582.137 22.66C581.67 21.9267 580.943 21.56 579.957 21.56ZM596.801 25.62C596.801 26.5133 596.681 27.3067 596.441 28C596.215 28.68 595.881 29.26 595.441 29.74C595.015 30.22 594.488 30.5867 593.861 30.84C593.248 31.08 592.561 31.2 591.801 31.2C591.095 31.2 590.441 31.08 589.841 30.84C589.241 30.5867 588.721 30.22 588.281 29.74C587.841 29.26 587.495 28.68 587.241 28C587.001 27.3067 586.881 26.5133 586.881 25.62C586.881 24.4333 587.081 23.4333 587.481 22.62C587.881 21.7933 588.455 21.1667 589.201 20.74C589.948 20.3 590.835 20.08 591.861 20.08C592.835 20.08 593.688 20.3 594.421 20.74C595.168 21.1667 595.748 21.7933 596.161 22.62C596.588 23.4333 596.801 24.4333 596.801 25.62ZM588.701 25.62C588.701 26.46 588.808 27.1933 589.021 27.82C589.248 28.4333 589.595 28.9067 590.061 29.24C590.528 29.5733 591.121 29.74 591.841 29.74C592.561 29.74 593.155 29.5733 593.621 29.24C594.088 28.9067 594.428 28.4333 594.641 27.82C594.868 27.1933 594.981 26.46 594.981 25.62C594.981 24.7667 594.868 24.04 594.641 23.44C594.415 22.84 594.068 22.38 593.601 22.06C593.148 21.7267 592.555 21.56 591.821 21.56C590.728 21.56 589.935 21.92 589.441 22.64C588.948 23.36 588.701 24.3533 588.701 25.62ZM607.551 20.28V29.52H609.111V34.72H607.411V31H599.951V34.72H598.271V29.52H599.131C599.744 28.6667 600.251 27.74 600.651 26.74C601.064 25.7267 601.371 24.6733 601.571 23.58C601.784 22.4733 601.897 21.3733 601.911 20.28H607.551ZM603.471 21.66C603.417 22.5667 603.277 23.5067 603.051 24.48C602.824 25.44 602.531 26.36 602.171 27.24C601.824 28.12 601.417 28.88 600.951 29.52H605.851V21.66H603.471ZM612.872 26.82C612.872 26.94 612.865 27.1133 612.852 27.34C612.852 27.5533 612.845 27.7867 612.832 28.04C612.818 28.28 612.805 28.5133 612.792 28.74C612.778 28.9533 612.765 29.1267 612.752 29.26L618.492 20.28H620.652V31H619.012V24.68C619.012 24.4667 619.012 24.1867 619.012 23.84C619.025 23.4933 619.038 23.1533 619.052 22.82C619.065 22.4733 619.078 22.2133 619.092 22.04L613.392 31H611.212V20.28H612.872V26.82ZM631.463 21.76H627.963V31H626.223V21.76H622.763V20.28H631.463V21.76ZM637.52 20.08C638.44 20.08 639.226 20.28 639.88 20.68C640.546 21.08 641.053 21.6467 641.4 22.38C641.76 23.1 641.94 23.9467 641.94 24.92V25.98H634.6C634.626 27.1933 634.933 28.12 635.52 28.76C636.12 29.3867 636.953 29.7 638.02 29.7C638.7 29.7 639.3 29.64 639.82 29.52C640.353 29.3867 640.9 29.2 641.46 28.96V30.5C640.913 30.74 640.373 30.9133 639.84 31.02C639.306 31.14 638.673 31.2 637.94 31.2C636.926 31.2 636.026 30.9933 635.24 30.58C634.466 30.1667 633.86 29.5533 633.42 28.74C632.993 27.9133 632.78 26.9067 632.78 25.72C632.78 24.5467 632.973 23.54 633.36 22.7C633.76 21.86 634.313 21.2133 635.02 20.76C635.74 20.3067 636.573 20.08 637.52 20.08ZM637.5 21.52C636.66 21.52 635.993 21.7933 635.5 22.34C635.02 22.8733 634.733 23.62 634.64 24.58H640.1C640.1 23.9667 640.006 23.4333 639.82 22.98C639.633 22.5267 639.346 22.1733 638.96 21.92C638.586 21.6533 638.1 21.52 637.5 21.52ZM652.829 31H651.049V21.74H647.889C647.755 23.4333 647.589 24.88 647.389 26.08C647.189 27.2667 646.935 28.2333 646.629 28.98C646.322 29.7267 645.955 30.2733 645.529 30.62C645.102 30.9667 644.602 31.14 644.029 31.14C643.855 31.14 643.682 31.1267 643.509 31.1C643.349 31.0867 643.215 31.0533 643.109 31V29.68C643.189 29.7067 643.275 29.7267 643.369 29.74C643.462 29.7533 643.555 29.76 643.649 29.76C643.942 29.76 644.209 29.64 644.449 29.4C644.689 29.16 644.902 28.7933 645.089 28.3C645.289 27.8067 645.469 27.1867 645.629 26.44C645.789 25.68 645.929 24.7867 646.049 23.76C646.169 22.7333 646.275 21.5733 646.369 20.28H652.829V31ZM660.371 20.08C661.291 20.08 662.078 20.28 662.731 20.68C663.398 21.08 663.905 21.6467 664.251 22.38C664.611 23.1 664.791 23.9467 664.791 24.92V25.98H657.451C657.478 27.1933 657.785 28.12 658.371 28.76C658.971 29.3867 659.805 29.7 660.871 29.7C661.551 29.7 662.151 29.64 662.671 29.52C663.205 29.3867 663.751 29.2 664.311 28.96V30.5C663.765 30.74 663.225 30.9133 662.691 31.02C662.158 31.14 661.525 31.2 660.791 31.2C659.778 31.2 658.878 30.9933 658.091 30.58C657.318 30.1667 656.711 29.5533 656.271 28.74C655.845 27.9133 655.631 26.9067 655.631 25.72C655.631 24.5467 655.825 23.54 656.211 22.7C656.611 21.86 657.165 21.2133 657.871 20.76C658.591 20.3067 659.425 20.08 660.371 20.08ZM660.351 21.52C659.511 21.52 658.845 21.7933 658.351 22.34C657.871 22.8733 657.585 23.62 657.491 24.58H662.951C662.951 23.9667 662.858 23.4333 662.671 22.98C662.485 22.5267 662.198 22.1733 661.811 21.92C661.438 21.6533 660.951 21.52 660.351 21.52ZM676.2 15.84C676.147 16.5067 675.98 17.0667 675.7 17.52C675.434 17.9733 675.034 18.3133 674.5 18.54C673.967 18.7667 673.274 18.88 672.42 18.88C671.554 18.88 670.854 18.7667 670.32 18.54C669.8 18.3133 669.42 17.98 669.18 17.54C668.94 17.0867 668.794 16.52 668.74 15.84H670.38C670.447 16.56 670.634 17.0467 670.94 17.3C671.26 17.54 671.767 17.66 672.46 17.66C673.074 17.66 673.554 17.5333 673.9 17.28C674.26 17.0133 674.474 16.5333 674.54 15.84H676.2ZM669.18 26.82C669.18 26.94 669.174 27.1133 669.16 27.34C669.16 27.5533 669.154 27.7867 669.14 28.04C669.127 28.28 669.114 28.5133 669.1 28.74C669.087 28.9533 669.074 29.1267 669.06 29.26L674.8 20.28H676.96V31H675.32V24.68C675.32 24.4667 675.32 24.1867 675.32 23.84C675.334 23.4933 675.347 23.1533 675.36 22.82C675.374 22.4733 675.387 22.2133 675.4 22.04L669.7 31H667.52V20.28H669.18V26.82Z" fill="black"/>
<g filter="url(#filter0_d_327_68)">
<path d="M924.668 33V19H936.728V33H934.768V20.22L935.248 20.74H926.148L926.648 20.22V33H924.668ZM947.274 33V30.76L947.174 30.34V26.52C947.174 25.7067 946.934 25.08 946.454 24.64C945.987 24.1867 945.281 23.96 944.334 23.96C943.707 23.96 943.094 24.0667 942.494 24.28C941.894 24.48 941.387 24.7533 940.974 25.1L940.174 23.66C940.721 23.22 941.374 22.8867 942.134 22.66C942.907 22.42 943.714 22.3 944.554 22.3C946.007 22.3 947.127 22.6533 947.914 23.36C948.701 24.0667 949.094 25.1467 949.094 26.6V33H947.274ZM943.794 33.12C943.007 33.12 942.314 32.9867 941.714 32.72C941.127 32.4533 940.674 32.0867 940.354 31.62C940.034 31.14 939.874 30.6 939.874 30C939.874 29.4267 940.007 28.9067 940.274 28.44C940.554 27.9733 941.001 27.6 941.614 27.32C942.241 27.04 943.081 26.9 944.134 26.9H947.494V28.28H944.214C943.254 28.28 942.607 28.44 942.274 28.76C941.941 29.08 941.774 29.4667 941.774 29.92C941.774 30.44 941.981 30.86 942.394 31.18C942.807 31.4867 943.381 31.64 944.114 31.64C944.834 31.64 945.461 31.48 945.994 31.16C946.541 30.84 946.934 30.3733 947.174 29.76L947.554 31.08C947.301 31.7067 946.854 32.2067 946.214 32.58C945.574 32.94 944.767 33.12 943.794 33.12ZM958.171 33.12C957.291 33.12 956.485 32.92 955.751 32.52C955.031 32.1067 954.451 31.5 954.011 30.7C953.585 29.9 953.371 28.9 953.371 27.7C953.371 26.5 953.578 25.5 953.991 24.7C954.418 23.9 954.991 23.3 955.711 22.9C956.445 22.5 957.265 22.3 958.171 22.3C959.211 22.3 960.131 22.5267 960.931 22.98C961.731 23.4333 962.365 24.0667 962.831 24.88C963.298 25.68 963.531 26.62 963.531 27.7C963.531 28.78 963.298 29.7267 962.831 30.54C962.365 31.3533 961.731 31.9867 960.931 32.44C960.131 32.8933 959.211 33.12 958.171 33.12ZM952.551 36.88V22.4H954.391V25.26L954.271 27.72L954.471 30.18V36.88H952.551ZM958.011 31.44C958.691 31.44 959.298 31.2867 959.831 30.98C960.378 30.6733 960.805 30.24 961.111 29.68C961.431 29.1067 961.591 28.4467 961.591 27.7C961.591 26.94 961.431 26.2867 961.111 25.74C960.805 25.18 960.378 24.7467 959.831 24.44C959.298 24.1333 958.691 23.98 958.011 23.98C957.345 23.98 956.738 24.1333 956.191 24.44C955.658 24.7467 955.231 25.18 954.911 25.74C954.605 26.2867 954.451 26.94 954.451 27.7C954.451 28.4467 954.605 29.1067 954.911 29.68C955.231 30.24 955.658 30.6733 956.191 30.98C956.738 31.2867 957.345 31.44 958.011 31.44ZM968.03 33V23.58L968.51 24.08H964.15V22.4H973.83V24.08H969.49L969.95 23.58V33H968.03ZM975.794 33V22.4H977.714V26.9H983.754V22.4H985.674V33H983.754V28.56H977.714V33H975.794ZM994.127 33.12C992.994 33.12 991.994 32.8867 991.127 32.42C990.274 31.9533 989.607 31.3133 989.127 30.5C988.66 29.6867 988.427 28.7533 988.427 27.7C988.427 26.6467 988.654 25.7133 989.107 24.9C989.574 24.0867 990.207 23.4533 991.007 23C991.82 22.5333 992.734 22.3 993.747 22.3C994.774 22.3 995.68 22.5267 996.467 22.98C997.254 23.4333 997.867 24.0733 998.307 24.9C998.76 25.7133 998.987 26.6667 998.987 27.76C998.987 27.84 998.98 27.9333 998.967 28.04C998.967 28.1467 998.96 28.2467 998.947 28.34H989.927V26.96H997.947L997.167 27.44C997.18 26.76 997.04 26.1533 996.747 25.62C996.454 25.0867 996.047 24.6733 995.527 24.38C995.02 24.0733 994.427 23.92 993.747 23.92C993.08 23.92 992.487 24.0733 991.967 24.38C991.447 24.6733 991.04 25.0933 990.747 25.64C990.454 26.1733 990.307 26.7867 990.307 27.48V27.8C990.307 28.5067 990.467 29.14 990.787 29.7C991.12 30.2467 991.58 30.6733 992.167 30.98C992.754 31.2867 993.427 31.44 994.187 31.44C994.814 31.44 995.38 31.3333 995.887 31.12C996.407 30.9067 996.86 30.5867 997.247 30.16L998.307 31.4C997.827 31.96 997.227 32.3867 996.507 32.68C995.8 32.9733 995.007 33.12 994.127 33.12ZM1007.59 33.12C1006.71 33.12 1005.9 32.92 1005.17 32.52C1004.45 32.1067 1003.87 31.5 1003.43 30.7C1003 29.9 1002.79 28.9 1002.79 27.7C1002.79 26.5 1002.99 25.5 1003.41 24.7C1003.83 23.9 1004.41 23.3 1005.13 22.9C1005.86 22.5 1006.68 22.3 1007.59 22.3C1008.63 22.3 1009.55 22.5267 1010.35 22.98C1011.15 23.4333 1011.78 24.0667 1012.25 24.88C1012.71 25.68 1012.95 26.62 1012.95 27.7C1012.95 28.78 1012.71 29.7267 1012.25 30.54C1011.78 31.3533 1011.15 31.9867 1010.35 32.44C1009.55 32.8933 1008.63 33.12 1007.59 33.12ZM1001.97 36.88V22.4H1003.81V25.26L1003.69 27.72L1003.89 30.18V36.88H1001.97ZM1007.43 31.44C1008.11 31.44 1008.71 31.2867 1009.25 30.98C1009.79 30.6733 1010.22 30.24 1010.53 29.68C1010.85 29.1067 1011.01 28.4467 1011.01 27.7C1011.01 26.94 1010.85 26.2867 1010.53 25.74C1010.22 25.18 1009.79 24.7467 1009.25 24.44C1008.71 24.1333 1008.11 23.98 1007.43 23.98C1006.76 23.98 1006.15 24.1333 1005.61 24.44C1005.07 24.7467 1004.65 25.18 1004.33 25.74C1004.02 26.2867 1003.87 26.94 1003.87 27.7C1003.87 28.4467 1004.02 29.1067 1004.33 29.68C1004.65 30.24 1005.07 30.6733 1005.61 30.98C1006.15 31.2867 1006.76 31.44 1007.43 31.44ZM1022.14 33V30.76L1022.04 30.34V26.52C1022.04 25.7067 1021.8 25.08 1021.32 24.64C1020.85 24.1867 1020.14 23.96 1019.2 23.96C1018.57 23.96 1017.96 24.0667 1017.36 24.28C1016.76 24.48 1016.25 24.7533 1015.84 25.1L1015.04 23.66C1015.58 23.22 1016.24 22.8867 1017 22.66C1017.77 22.42 1018.58 22.3 1019.42 22.3C1020.87 22.3 1021.99 22.6533 1022.78 23.36C1023.56 24.0667 1023.96 25.1467 1023.96 26.6V33H1022.14ZM1018.66 33.12C1017.87 33.12 1017.18 32.9867 1016.58 32.72C1015.99 32.4533 1015.54 32.0867 1015.22 31.62C1014.9 31.14 1014.74 30.6 1014.74 30C1014.74 29.4267 1014.87 28.9067 1015.14 28.44C1015.42 27.9733 1015.86 27.6 1016.48 27.32C1017.1 27.04 1017.94 26.9 1019 26.9H1022.36V28.28H1019.08C1018.12 28.28 1017.47 28.44 1017.14 28.76C1016.8 29.08 1016.64 29.4667 1016.64 29.92C1016.64 30.44 1016.84 30.86 1017.26 31.18C1017.67 31.4867 1018.24 31.64 1018.98 31.64C1019.7 31.64 1020.32 31.48 1020.86 31.16C1021.4 30.84 1021.8 30.3733 1022.04 29.76L1022.42 31.08C1022.16 31.7067 1021.72 32.2067 1021.08 32.58C1020.44 32.94 1019.63 33.12 1018.66 33.12ZM1027.41 33V22.4H1029.39L1033.95 30.24H1033.15L1037.83 22.4H1039.63V33H1037.89V24.56L1038.21 24.74L1033.93 31.8H1033.09L1028.79 24.6L1029.17 24.52V33H1027.41Z" fill="black"/>
<rect x="905" y="10" width="154" height="32" rx="16" stroke="black" stroke-width="2" shape-rendering="crispEdges"/>
</g>
<path d="M1096.54 29C1096.66 28.01 1096.75 27.02 1096.75 26C1096.75 24.98 1096.66 23.99 1096.54 23H1101.61C1101.85 23.96 1102 24.965 1102 26C1102 27.035 1101.85 28.04 1101.61 29M1093.88 37.34C1094.78 35.675 1095.47 33.875 1095.95 32H1100.38C1098.93 34.5024 1096.62 36.398 1093.88 37.34ZM1093.51 29H1086.49C1086.34 28.01 1086.25 27.02 1086.25 26C1086.25 24.98 1086.34 23.975 1086.49 23H1093.51C1093.64 23.975 1093.75 24.98 1093.75 26C1093.75 27.02 1093.64 28.01 1093.51 29ZM1090 37.94C1088.75 36.14 1087.75 34.145 1087.13 32H1092.86C1092.25 34.145 1091.24 36.14 1090 37.94ZM1084 20H1079.62C1081.06 17.4908 1083.36 15.5922 1086.1 14.66C1085.2 16.325 1084.52 18.125 1084 20ZM1079.62 32H1084C1084.52 33.875 1085.2 35.675 1086.1 37.34C1083.37 36.3975 1081.07 34.5016 1079.62 32ZM1078.39 29C1078.15 28.04 1078 27.035 1078 26C1078 24.965 1078.15 23.96 1078.39 23H1083.46C1083.34 23.99 1083.25 24.98 1083.25 26C1083.25 27.02 1083.34 28.01 1083.46 29M1090 14.045C1091.24 15.845 1092.25 17.855 1092.86 20H1087.13C1087.75 17.855 1088.75 15.845 1090 14.045ZM1100.38 20H1095.95C1095.49 18.1422 1094.79 16.3488 1093.88 14.66C1096.64 15.605 1098.94 17.51 1100.38 20ZM1090 11C1081.7 11 1075 17.75 1075 26C1075 29.9782 1076.58 33.7936 1079.39 36.6066C1080.79 37.9995 1082.44 39.1044 1084.26 39.8582C1086.08 40.612 1088.03 41 1090 41C1093.98 41 1097.79 39.4196 1100.61 36.6066C1103.42 33.7936 1105 29.9782 1105 26C1105 24.0302 1104.61 22.0796 1103.86 20.2597C1103.1 18.4399 1102 16.7863 1100.61 15.3934C1099.21 14.0005 1097.56 12.8956 1095.74 12.1418C1093.92 11.388 1091.97 11 1090 11Z" fill="#1E1E1E"/>
<defs>
<filter id="filter0_d_327_68" x="900" y="8" width="164" height="42" filterUnits="userSpaceOnUse" color-interpolation-filters="sRGB">
<feFlood flood-opacity="0" result="BackgroundImageFix"/>
<feColorMatrix in="SourceAlpha" type="matrix" values="0 0 0 0 0 0 0 0 0 0 0 0 0 0 0 0 0 0 127 0" result="hardAlpha"/>
<feOffset dy="3"/>
<feGaussianBlur stdDeviation="2"/>
<feComposite in2="hardAlpha" operator="out"/>
<feColorMatrix type="matrix" values="0 0 0 0 0 0 0 0 0 0 0 0 0 0 0 0 0 0 0.15 0"/>
<feBlend mode="normal" in2="BackgroundImageFix" result="effect1_dropShadow_327_68"/>
<feBlend mode="normal" in="SourceGraphic" in2="effect1_dropShadow_327_68" result="shape"/>
</filter>
</defs>
</svg>
