<svg width="48" height="44" viewBox="0 0 48 44" fill="none" xmlns="http://www.w3.org/2000/svg">
<path d="M40 22C39.4667 22 38.9913 21.824 38.574 21.472C38.1567 21.12 37.916 20.6849 37.852 20.1667C37.4187 17.325 36.11 14.9032 33.926 12.9012C31.742 10.8992 29.1 9.70017 26 9.30417C25.4333 9.24306 24.958 9.02917 24.574 8.6625C24.19 8.29583 23.9987 7.85278 24 7.33333C24 6.81389 24.2 6.37817 24.6 6.02617C25 5.67417 25.4667 5.52933 26 5.59167C30.2 6.01944 33.7833 7.59306 36.75 10.3125C39.7167 13.0319 41.4333 16.3167 41.9 20.1667C41.9667 20.6556 41.808 21.0833 41.424 21.45C41.04 21.8167 40.5653 22 40 22ZM31.65 22C31.2167 22 30.8333 21.8625 30.5 21.5875C30.1667 21.3125 29.9167 20.9458 29.75 20.4875C29.4833 19.6014 28.9747 18.8143 28.224 18.1262C27.4733 17.4381 26.6153 16.9724 25.65 16.7292C25.15 16.5764 24.75 16.3472 24.45 16.0417C24.15 15.7361 24 15.3694 24 14.9417C24 14.3306 24.2333 13.8337 24.7 13.4512C25.1667 13.0686 25.6833 12.9391 26.25 13.0625C28.1167 13.4597 29.7253 14.2774 31.076 15.5155C32.4267 16.7536 33.318 18.2276 33.75 19.9375C33.8833 20.4569 33.7333 20.9306 33.3 21.3583C32.8667 21.7861 32.3167 22 31.65 22ZM39.9 38.5C35.6 38.5 31.408 37.6212 27.324 35.8637C23.24 34.1061 19.6233 31.7839 16.474 28.897C13.3247 26.0101 10.7913 22.6948 8.874 18.9512C6.95667 15.2075 5.99867 11.3654 6 7.425C6 6.875 6.2 6.41667 6.6 6.05C7 5.68333 7.5 5.5 8.1 5.5H16.2C16.6667 5.5 17.0833 5.6375 17.45 5.9125C17.8167 6.1875 18.0333 6.53889 18.1 6.96667L19.4 13.3833C19.4667 13.8111 19.458 14.201 19.374 14.553C19.29 14.905 19.0987 15.2179 18.8 15.4917L14 19.9833C15.4 22.1833 17.15 24.2458 19.25 26.1708C21.35 28.0958 23.6667 29.7611 26.2 31.1667L30.9 26.8583C31.2 26.5833 31.592 26.3774 32.076 26.2405C32.56 26.1036 33.0347 26.0651 33.5 26.125L40.4 27.4083C40.8667 27.5 41.25 27.7066 41.55 28.028C41.85 28.3494 42 28.7234 42 29.15V36.575C42 37.125 41.8 37.5833 41.4 37.95C41 38.3167 40.5 38.5 39.9 38.5Z" fill="#FDCA40"/>
</svg>
