<svg width="65" height="60" viewBox="0 0 65 60" fill="none" xmlns="http://www.w3.org/2000/svg">
<path d="M32.4998 28.75C30.7041 28.75 28.9819 28.0915 27.7121 26.9194C26.4424 25.7473 25.729 24.1576 25.729 22.5C25.729 20.8424 26.4424 19.2527 27.7121 18.0806C28.9819 16.9085 30.7041 16.25 32.4998 16.25C34.2956 16.25 36.0178 16.9085 37.2876 18.0806C38.5573 19.2527 39.2707 20.8424 39.2707 22.5C39.2707 23.3208 39.0956 24.1335 38.7553 24.8918C38.415 25.6501 37.9163 26.3391 37.2876 26.9194C36.6588 27.4998 35.9124 27.9602 35.0909 28.2742C34.2695 28.5883 33.389 28.75 32.4998 28.75ZM32.4998 5C27.4718 5 22.6497 6.84374 19.0943 10.1256C15.5389 13.4075 13.5415 17.8587 13.5415 22.5C13.5415 35.625 32.4998 55 32.4998 55C32.4998 55 51.4582 35.625 51.4582 22.5C51.4582 17.8587 49.4608 13.4075 45.9054 10.1256C42.35 6.84374 37.5279 5 32.4998 5Z" fill="#FDCA40"/>
</svg>
