<svg width="53" height="50" viewBox="0 0 53 50" fill="none" xmlns="http://www.w3.org/2000/svg">
<path d="M17.2248 4.16699H35.7748C42.8415 4.16699 48.5832 9.58366 48.5832 16.2503V33.7503C48.5832 36.955 47.2337 40.0285 44.8317 42.2945C42.4297 44.5606 39.1718 45.8337 35.7748 45.8337H17.2248C10.1582 45.8337 4.4165 40.417 4.4165 33.7503V16.2503C4.4165 13.0456 5.76595 9.97218 8.16798 7.70612C10.57 5.44005 13.8279 4.16699 17.2248 4.16699ZM16.7832 8.33366C14.6747 8.33366 12.6526 9.12384 11.1617 10.5304C9.67076 11.9369 8.83317 13.8445 8.83317 15.8337V34.167C8.83317 38.3128 12.3886 41.667 16.7832 41.667H36.2165C38.325 41.667 40.3471 40.8768 41.838 39.4703C43.3289 38.0638 44.1665 36.1561 44.1665 34.167V15.8337C44.1665 11.6878 40.6111 8.33366 36.2165 8.33366H16.7832ZM38.0936 11.4587C38.8257 11.4587 39.5278 11.733 40.0455 12.2214C40.5632 12.7098 40.854 13.3722 40.854 14.0628C40.854 14.7535 40.5632 15.4159 40.0455 15.9042C39.5278 16.3926 38.8257 16.667 38.0936 16.667C37.3615 16.667 36.6594 16.3926 36.1417 15.9042C35.624 15.4159 35.3332 14.7535 35.3332 14.0628C35.3332 13.3722 35.624 12.7098 36.1417 12.2214C36.6594 11.733 37.3615 11.4587 38.0936 11.4587ZM26.4998 14.5837C29.4283 14.5837 32.2368 15.6811 34.3075 17.6346C36.3782 19.5881 37.5415 22.2377 37.5415 25.0003C37.5415 27.763 36.3782 30.4125 34.3075 32.366C32.2368 34.3195 29.4283 35.417 26.4998 35.417C23.5714 35.417 20.7629 34.3195 18.6922 32.366C16.6215 30.4125 15.4582 27.763 15.4582 25.0003C15.4582 22.2377 16.6215 19.5881 18.6922 17.6346C20.7629 15.6811 23.5714 14.5837 26.4998 14.5837ZM26.4998 18.7503C24.7428 18.7503 23.0577 19.4088 21.8153 20.5809C20.5728 21.753 19.8748 23.3427 19.8748 25.0003C19.8748 26.6579 20.5728 28.2476 21.8153 29.4197C23.0577 30.5918 24.7428 31.2503 26.4998 31.2503C28.2569 31.2503 29.942 30.5918 31.1844 29.4197C32.4268 28.2476 33.1248 26.6579 33.1248 25.0003C33.1248 23.3427 32.4268 21.753 31.1844 20.5809C29.942 19.4088 28.2569 18.7503 26.4998 18.7503Z" fill="#FDCA40"/>
</svg>
