<svg width="1440" height="928" viewBox="0 0 1440 928" fill="none" xmlns="http://www.w3.org/2000/svg">
<path d="M90.6061 583.297C-76.2703 621.527 -133.33 681.746 -141 707.076V818.713C-141 904.497 -49.458 928 27.077 928H950L904.979 613.458C876.967 482.236 644.86 380 535.81 380C426.76 380 299.202 535.508 90.6061 583.297Z" fill="#F6E9CA"/>
<path d="M497 579C399.4 677 42.3333 685.167 -124 677L-182 -54H1246C1271.5 -21.3333 1307.2 67.2 1246 160C1169.5 276 943.5 276 809 310C674.5 344 619 456.5 497 579Z" fill="#E9C08D"/>
<path d="M1353 337C1075 317 1011.83 57.3333 1015 -70L1164 -282.5L1644.5 -31.5C1663.17 99.6667 1631 357 1353 337Z" fill="#F0AB04"/>
</svg>
