<svg width="1440" height="4722" viewBox="0 0 1440 4722" fill="none" xmlns="http://www.w3.org/2000/svg">
<path d="M520.863 2812.14C679.6 2720.43 628.853 2570.31 583.637 2506.72C602.833 2366.86 167.137 2212.13 13.1377 2274.13C-427.362 2586.63 216.568 2362.75 110.313 2577.54C4.05675 2792.34 322.443 2926.78 520.863 2812.14Z" fill="#F3E1B5" fill-opacity="0.72"/>
<path d="M1831.41 103.136C1497.04 -132.524 1347.03 90.5835 1248.4 228.554C1200.13 296.083 1090.03 533.723 1145.03 655.583C1159.81 688.331 1194.53 714.583 1248.4 728.116C1337.25 750.434 1666.11 696.716 1831.41 643.848C1970.73 561.802 2165.77 338.796 1831.41 103.136Z" fill="url(#paint0_linear_321_200)" fill-opacity="0.7"/>
<path d="M1232.37 1794.23C1309.05 1531.93 1506.15 1514.68 1595.12 1538.83L1711.25 1716.46L1426.29 2133.89C1329.7 2129.96 1155.7 2056.52 1232.37 1794.23Z" fill="#F0AB04" fill-opacity="0.79"/>
<path d="M124.989 831.213C200.232 865.312 249.129 949.729 224.688 985.594C198.175 1024.48 98.0974 987.682 56.5524 1040.41C33.1955 1070.05 51.1286 1099.03 24.2558 1117.68C-3.94296 1137.25 -54.8731 1126.96 -85.7484 1109.07C-151.478 1071.01 -182.178 966.219 -130.006 890.073C-76.2393 811.518 44.3662 794.681 124.989 831.213Z" fill="#F6E9CA"/>
<path d="M-276.451 3877.15C-406.339 3888.54 -503.376 4002.06 -540 4018.93L-313.495 4133.5C-377.864 4193.12 -332.36 4257.24 -330.14 4423.56C-327.921 4589.88 -247.274 4649 -116.316 4649L661.291 4649C758.955 4649 901.273 4774.15 976 4695C1050.73 4615.85 752.282 4145.95 491.999 4133.5C-315.212 4094.9 248.305 3831.14 -276.451 3877.15Z" fill="url(#paint1_linear_321_200)"/>
<circle cx="604" cy="2679" r="95" fill="#F0AB04"/>
<path d="M1017.5 3873.5C991.983 4059.41 1117.5 4257 1448.55 4225.79L1729.82 3578C1416.36 3816.25 1038.53 3720.26 1017.5 3873.5Z" fill="#F3E1B5" fill-opacity="0.72"/>
<ellipse cx="1393" cy="4503" rx="132" ry="124" fill="#F0AB04"/>
<defs>
<linearGradient id="paint0_linear_321_200" x1="1610.28" y1="830.992" x2="1326.86" y2="252.627" gradientUnits="userSpaceOnUse">
<stop stop-color="#E4B281"/>
<stop offset="1" stop-color="#ECC894"/>
</linearGradient>
<linearGradient id="paint1_linear_321_200" x1="171.654" y1="3777.06" x2="406.457" y2="4517.1" gradientUnits="userSpaceOnUse">
<stop stop-color="#E4B281"/>
<stop offset="1" stop-color="#ECC894"/>
</linearGradient>
</defs>
</svg>
