<svg width="262" height="65" viewBox="0 0 262 65" fill="none" xmlns="http://www.w3.org/2000/svg">
<g clip-path="url(#clip0_282_186)">
<path d="M127.504 47.8793L121.725 54.439L119.783 53.9298L136.451 34.9595L138.763 35.5486L140.658 59.4512L138.578 58.8921L137.977 50.655L127.504 47.8793ZM137.838 48.9476C137.341 41.8587 137.006 38.434 137.017 36.8665C135.861 38.3242 132.914 41.689 128.753 46.5414L137.838 48.9476Z" fill="#797782"/>
<path d="M160.157 39.103L161.984 39.3227L160.319 49.4768C161.475 47.9991 163.498 46.771 167.081 47.2104C171.404 47.7295 174.086 51.2041 173.288 56.0565C172.491 60.909 169.023 64.3436 163.891 63.7246C160.816 63.3451 159.267 62.0572 158.574 60.1402C158.412 61.1386 158.204 62.137 158.1 62.6263L156.297 62.4066C156.632 60.6094 156.933 58.8022 157.222 57.0051L160.157 39.103ZM171.346 55.8568C171.994 51.8631 170.133 49.0974 166.653 48.6681C162.03 48.109 160.03 50.6051 159.348 54.7486C158.736 58.4827 159.672 61.6877 164.215 62.2469C167.902 62.6962 170.606 60.3199 171.346 55.8568Z" fill="#797782"/>
<path d="M187.527 40.8205L189.377 40.7007L189.654 43.7859L187.816 43.9157L187.527 40.8205ZM188.221 48.3787L190.059 48.2489L191.504 64.204L189.666 64.3338L188.221 48.3787Z" fill="#797782"/>
<path d="M211.432 60.42L201.434 38.4543L203.156 37.8652L213.154 59.781L211.432 60.42Z" fill="#797782"/>
<path d="M211.963 32.8032L213.211 31.625L215.858 33.7217L214.61 34.8999L211.963 32.8032ZM218.459 37.9252L219.707 36.747L233.323 47.5601L232.075 48.7383L218.459 37.9252Z" fill="#797782"/>
<path d="M226.942 28.1402L228.641 25.5542L223.625 23.0881L224.538 21.7002L229.555 24.1564L231.728 20.8516L233.242 21.5904L231.069 24.9052L241.576 30.0272C243.379 30.9059 244.627 31.0756 245.494 29.7477C245.834 29.2664 246.09 28.7451 246.257 28.2001L247.667 28.899C247.522 29.561 247.236 30.1941 246.823 30.7661C245.667 32.5433 243.98 33.0425 241.402 31.7645L230.156 26.2631L228.457 28.8491L226.942 28.1402Z" fill="#797782"/>
<path d="M237.449 11.0569C248.603 12.0553 253.25 12.3549 255.319 12.5945C253.585 11.1867 250.337 8.46097 242.454 1.84131L243.298 0.303711L258.046 12.924C262.161 16.4685 262.67 17.9162 261.294 20.5621C261.05 21.0068 260.772 21.4371 260.462 21.85L258.798 21.1711C259.1 20.7663 259.367 20.3425 259.595 19.9031C260.751 17.8263 259.919 16.6881 257.052 14.212L236.582 12.6544L237.449 11.0569Z" fill="#797782"/>
<path d="M18.0084 26.2631L5.22451 29.0887L7.95235 38.1845L21.9614 35.0594L22.1348 36.6668L6.4844 40.1614L0 18.5152L15.3615 15.0806L15.8238 16.6281L2.39264 19.6235L4.76217 27.5411L17.546 24.6856L18.0084 26.2631Z" fill="#797782"/>
<path d="M34.4337 19.6336C37.4736 26.9322 39.5773 31.9144 40.294 33.9513C40.687 32.7631 42.7328 27.9606 46.2698 19.5737H48.2348L41.2996 35.5488H39.1497L32.4688 19.5737L34.4337 19.6336Z" fill="#797782"/>
<path d="M62.5331 29.3084C61.4929 33.3022 63.1689 36.2975 66.6249 36.9764C67.7224 37.2759 68.9038 37.2531 69.9847 36.9118C71.0657 36.5704 71.9855 35.9297 72.6007 35.0894L74.4385 35.4588C73.6712 36.7065 72.4279 37.6864 70.9194 38.2323C69.4109 38.7783 67.7303 38.8567 66.1625 38.4541C60.6837 37.3658 59.655 32.8629 60.7069 28.9091C61.8627 24.456 65.4806 21.1412 70.7398 22.1896C76.2879 23.2679 76.9468 27.7608 76.1723 30.6863C76.0568 31.1156 75.9412 31.5549 75.7909 31.9543L62.5331 29.3084ZM74.323 30.2569C75.1089 27.1718 73.8144 24.3562 70.2774 23.6473C66.7405 22.9384 64.2785 24.8055 63.007 28.0005L74.323 30.2569Z" fill="#797782"/>
<path d="M91.4522 33.0626C92.7699 30.6364 93.3015 29.5781 93.5558 29.0688L95.1972 29.7278C94.9776 30.2071 94.5152 31.1456 93.5096 33.0027C94.506 32.1398 95.7833 31.5599 97.1712 31.3405C98.5591 31.1211 99.9914 31.2725 101.277 31.7746L100.433 33.3322C96.8385 32.1241 93.3709 33.2623 91.4984 36.7069L87.4182 44.2352L85.7422 43.5562L91.4522 33.0626Z" fill="#797782"/>
</g>
<defs>
<clipPath id="clip0_282_186">
<rect width="262" height="64" fill="white" transform="translate(0 0.303711)"/>
</clipPath>
</defs>
</svg>
