<svg width="262" height="62" viewBox="0 0 262 62" fill="none" xmlns="http://www.w3.org/2000/svg">
<g clip-path="url(#clip0_226_323)">
<path d="M127.503 46.0888L121.724 52.4436L119.782 51.9503L136.45 33.5728L138.762 34.1434L140.657 57.2991L138.577 56.7575L137.976 48.7777L127.503 46.0888ZM137.837 47.1238C137.34 40.2564 137.005 36.9387 137.016 35.4202C135.86 36.8323 132.913 40.0919 128.752 44.7927L137.837 47.1238Z" fill="#797782"/>
<path d="M160.156 37.5869L161.983 37.7997L160.318 47.6365C161.474 46.205 163.497 45.0153 167.08 45.4409C171.403 45.9439 174.085 49.3098 173.287 54.0106C172.49 58.7114 169.022 62.0387 163.89 61.439C160.815 61.0715 159.266 59.8237 158.573 57.9666C158.411 58.9339 158.203 59.9011 158.099 60.3751L156.296 60.1623C156.631 58.4212 156.932 56.6705 157.221 54.9295L160.156 37.5869ZM171.345 53.8172C171.993 49.9482 170.132 47.269 166.652 46.8531C162.029 46.3114 160.029 48.7295 159.347 52.7435C158.735 56.361 159.671 59.4659 164.214 60.0075C167.901 60.4428 170.606 58.1407 171.345 53.8172Z" fill="#797782"/>
<path d="M187.527 39.2503L189.377 39.1343L189.654 42.123L187.816 42.2488L187.527 39.2503ZM188.221 46.5723L190.059 46.4466L191.504 61.9031L189.666 62.0288L188.221 46.5723Z" fill="#797782"/>
<path d="M211.431 58.2376L201.433 36.9584L203.155 36.3877L213.153 57.6186L211.431 58.2376Z" fill="#797782"/>
<path d="M211.963 31.4836L213.211 30.3423L215.858 32.3735L214.61 33.5148L211.963 31.4836ZM218.459 36.4456L219.707 35.3042L233.323 45.7794L232.075 46.9208L218.459 36.4456Z" fill="#797782"/>
<path d="M226.942 26.9666L228.641 24.4615L223.625 22.0724L224.538 20.7279L229.555 23.1073L231.728 19.9058L233.242 20.6215L231.069 23.8327L241.576 28.7947C243.379 29.6459 244.627 29.8103 245.494 28.5239C245.834 28.0576 246.09 27.5526 246.257 27.0246L247.667 27.7017C247.522 28.3431 247.236 28.9563 246.823 29.5104C245.667 31.2321 243.98 31.7157 241.402 30.4777L230.156 25.1482L228.457 27.6533L226.942 26.9666Z" fill="#797782"/>
<path d="M237.449 10.4172C248.603 11.3844 253.25 11.6746 255.319 11.9067C253.585 10.5429 250.337 7.90234 242.454 1.48955L243.298 0L258.046 12.2259C262.161 15.6596 262.67 17.0621 261.294 19.6253C261.05 20.0561 260.772 20.4729 260.462 20.873L258.798 20.2153C259.1 19.8232 259.367 19.4125 259.595 18.9869C260.751 16.975 259.919 15.8724 257.052 13.4736L236.582 11.9647L237.449 10.4172Z" fill="#797782"/>
<path d="M18.0084 25.148L5.22451 27.8853L7.95235 36.6968L21.9614 33.6694L22.1348 35.2266L6.4844 38.612L0 17.6422L15.3614 14.3149L15.8238 15.8142L2.39264 18.7159L4.76216 26.3861L17.546 23.6198L18.0084 25.148Z" fill="#797782"/>
<path d="M34.4327 18.7255C37.4727 25.796 39.5763 30.6226 40.293 32.5957C40.686 31.4447 42.7319 26.7923 46.2688 18.6675H48.2338L41.2986 34.1433H39.1487L32.4678 18.6675L34.4327 18.7255Z" fill="#797782"/>
<path d="M62.5322 28.0984C61.4919 31.9674 63.1679 34.8691 66.6239 35.5268C67.7214 35.8169 68.9028 35.7949 69.9838 35.4642C71.0648 35.1335 71.9846 34.5127 72.5997 33.6987L74.4376 34.0566C73.6703 35.2653 72.4269 36.2146 70.9184 36.7435C69.41 37.2723 67.7293 37.3483 66.1616 36.9583C60.6828 35.904 59.6541 31.5418 60.7059 27.7115C61.8618 23.3976 65.4796 20.1864 70.7388 21.202C76.287 22.2466 76.9458 26.5992 76.1714 29.4332C76.0558 29.8491 75.9402 30.2747 75.7899 30.6616L62.5322 28.0984ZM74.322 29.0173C75.108 26.0285 73.8134 23.3009 70.2765 22.6142C66.7395 21.9274 64.2775 23.7362 63.0061 26.8313L74.322 29.0173Z" fill="#797782"/>
<path d="M91.4522 31.7352C92.7699 29.3848 93.3015 28.3595 93.5558 27.8662L95.1972 28.5046C94.9776 28.9689 94.5152 29.8781 93.5096 31.6771C94.506 30.8412 95.7833 30.2795 97.1712 30.0669C98.5591 29.8543 99.9914 30.001 101.277 30.4874L100.433 31.9963C96.8385 30.826 93.3709 31.9286 91.4984 35.2656L87.4182 42.5586L85.7422 41.9008L91.4522 31.7352Z" fill="#797782"/>
</g>
<defs>
<clipPath id="clip0_226_323">
<rect width="262" height="62" fill="white"/>
</clipPath>
</defs>
</svg>
