<svg width="262" height="62" viewBox="0 0 262 62" fill="none" xmlns="http://www.w3.org/2000/svg">
<g clip-path="url(#clip0_279_99)">
<path d="M127.503 46.0893L121.724 52.4441L119.782 51.9508L136.45 33.5732L138.762 34.1439L140.657 57.2996L138.577 56.758L137.976 48.7782L127.503 46.0893ZM137.837 47.1243C137.34 40.2569 137.005 36.9392 137.016 35.4207C135.86 36.8328 132.913 40.0924 128.752 44.7932L137.837 47.1243Z" fill="#797782"/>
<path d="M160.156 37.5869L161.983 37.7997L160.318 47.6365C161.474 46.205 163.497 45.0153 167.08 45.4409C171.403 45.9439 174.085 49.3098 173.287 54.0106C172.49 58.7114 169.022 62.0387 163.89 61.439C160.815 61.0715 159.266 59.8237 158.573 57.9666C158.411 58.9339 158.203 59.9011 158.099 60.3751L156.296 60.1623C156.631 58.4212 156.932 56.6705 157.221 54.9295L160.156 37.5869ZM171.345 53.8172C171.993 49.9482 170.132 47.269 166.652 46.8531C162.029 46.3114 160.029 48.7295 159.347 52.7435C158.735 56.361 159.671 59.4659 164.214 60.0075C167.901 60.4428 170.606 58.1407 171.345 53.8172Z" fill="#797782"/>
<path d="M187.527 39.2508L189.377 39.1348L189.654 42.1235L187.816 42.2493L187.527 39.2508ZM188.221 46.5728L190.059 46.4471L191.504 61.9036L189.666 62.0293L188.221 46.5728Z" fill="#797782"/>
<path d="M211.431 58.2376L201.433 36.9584L203.155 36.3877L213.153 57.6186L211.431 58.2376Z" fill="#797782"/>
<path d="M211.963 31.4831L213.211 30.3418L215.858 32.373L214.61 33.5143L211.963 31.4831ZM218.459 36.4451L219.707 35.3037L233.323 45.7789L232.075 46.9203L218.459 36.4451Z" fill="#797782"/>
<path d="M226.942 26.9671L228.641 24.4619L223.625 22.0729L224.538 20.7284L229.555 23.1078L231.728 19.9062L233.242 20.622L231.069 23.8332L241.576 28.7952C243.379 29.6463 244.627 29.8108 245.494 28.5243C245.834 28.0581 246.09 27.5531 246.257 27.0251L247.667 27.7022C247.522 28.3436 247.236 28.9568 246.823 29.5109C245.667 31.2326 243.98 31.7162 241.402 30.4782L230.156 25.1487L228.457 27.6538L226.942 26.9671Z" fill="#797782"/>
<path d="M237.449 10.4172C248.603 11.3844 253.25 11.6746 255.319 11.9067C253.585 10.5429 250.337 7.90234 242.454 1.48955L243.298 0L258.046 12.2259C262.161 15.6596 262.67 17.0621 261.294 19.6253C261.05 20.0561 260.772 20.4729 260.462 20.873L258.798 20.2153C259.1 19.8232 259.367 19.4125 259.595 18.9869C260.751 16.975 259.919 15.8724 257.052 13.4736L236.582 11.9647L237.449 10.4172Z" fill="#797782"/>
<path d="M18.0084 25.1485L5.22451 27.8858L7.95235 36.6973L21.9614 33.6699L22.1348 35.2271L6.4844 38.6125L0 17.6427L15.3615 14.3154L15.8238 15.8146L2.39264 18.7164L4.76217 26.3866L17.546 23.6203L18.0084 25.1485Z" fill="#797782"/>
<path d="M34.4327 18.726C37.4727 25.7965 39.5763 30.623 40.293 32.5962C40.686 31.4452 42.7319 26.7928 46.2688 18.668H48.2338L41.2986 34.1438H39.1487L32.4678 18.668L34.4327 18.726Z" fill="#797782"/>
<path d="M62.5322 28.0979C61.4919 31.9669 63.1679 34.8686 66.6239 35.5263C67.7214 35.8164 68.9028 35.7944 69.9838 35.4637C71.0648 35.133 71.9846 34.5123 72.5997 33.6983L74.4376 34.0561C73.6703 35.2648 72.4269 36.2141 70.9184 36.743C69.41 37.2719 67.7293 37.3478 66.1616 36.9578C60.6828 35.9036 59.6541 31.5413 60.7059 27.711C61.8618 23.3972 65.4796 20.1859 70.7388 21.2015C76.287 22.2461 76.9458 26.5987 76.1714 29.4327C76.0558 29.8486 75.9402 30.2742 75.7899 30.6611L62.5322 28.0979ZM74.322 29.0168C75.108 26.028 73.8134 23.3004 70.2765 22.6137C66.7395 21.927 64.2775 23.7357 63.0061 26.8309L74.322 29.0168Z" fill="#797782"/>
<path d="M91.4522 31.7352C92.7699 29.3848 93.3015 28.3595 93.5558 27.8662L95.1972 28.5046C94.9776 28.9689 94.5152 29.8781 93.5096 31.6771C94.506 30.8412 95.7833 30.2795 97.1712 30.0669C98.5591 29.8543 99.9914 30.001 101.277 30.4874L100.433 31.9963C96.8385 30.826 93.3709 31.9286 91.4984 35.2656L87.4182 42.5586L85.7422 41.9008L91.4522 31.7352Z" fill="#797782"/>
</g>
<defs>
<clipPath id="clip0_279_99">
<rect width="262" height="62" fill="white"/>
</clipPath>
</defs>
</svg>
