<svg width="27" height="27" viewBox="0 0 27 27" fill="none" xmlns="http://www.w3.org/2000/svg">
<path d="M15.75 3.375V5.625H19.7887L8.73 16.6838L10.3162 18.27L21.375 7.21125V11.25H23.625V3.375M21.375 21.375H5.625V5.625H13.5V3.375H5.625C5.02826 3.375 4.45597 3.61205 4.03401 4.03401C3.61205 4.45597 3.375 5.02826 3.375 5.625V21.375C3.375 21.9717 3.61205 22.544 4.03401 22.966C4.45597 23.3879 5.02826 23.625 5.625 23.625H21.375C21.9717 23.625 22.544 23.3879 22.966 22.966C23.3879 22.544 23.625 21.9717 23.625 21.375V13.5H21.375V21.375Z" fill="#F4B211"/>
</svg>
