<svg width="154" height="154" viewBox="0 0 154 154" fill="none" xmlns="http://www.w3.org/2000/svg">
<path fill-rule="evenodd" clip-rule="evenodd" d="M96.2496 134.75C96.2496 139.855 94.2215 144.752 90.6114 148.362C87.0013 151.972 82.105 154 76.9996 154C71.8942 154 66.9979 151.972 63.3878 148.362C59.7777 144.752 57.7496 139.855 57.7496 134.75C57.7496 129.645 59.7777 124.748 63.3878 121.138C66.9979 117.528 71.8942 115.5 76.9996 115.5C82.105 115.5 87.0013 117.528 90.6114 121.138C94.2215 124.748 96.2496 129.645 96.2496 134.75ZM113.382 49.6554C112.029 48.3035 110.194 47.5442 108.281 47.5442C106.368 47.5442 104.533 48.3035 103.18 49.6554L84.2184 68.6166V7.21875C84.2184 5.30422 83.4578 3.4681 82.104 2.11432C80.7503 0.760545 78.9142 0 76.9996 0C75.0851 0 73.249 0.760545 71.8952 2.11432C70.5414 3.4681 69.7809 5.30422 69.7809 7.21875V68.6166L50.8196 49.6554C49.4512 48.3803 47.6412 47.6861 45.7711 47.7191C43.9009 47.7521 42.1166 48.5097 40.794 49.8323C39.4714 51.1549 38.7138 52.9392 38.6808 54.8093C38.6478 56.6795 39.342 58.4894 40.6171 59.8579L71.8984 91.1391L76.9996 96.25L82.1009 91.1488L113.382 59.8675C114.053 59.1971 114.585 58.4011 114.948 57.525C115.311 56.6489 115.498 55.7098 115.498 54.7614C115.498 53.8131 115.311 52.874 114.948 51.9979C114.585 51.1217 114.053 50.3258 113.382 49.6554Z" fill="#F1AD05"/>
</svg>
