<svg width="137" height="36" viewBox="0 0 137 36" fill="none" xmlns="http://www.w3.org/2000/svg">
<g clip-path="url(#clip0_418_281)">
<path d="M66.6712 26.7615L63.6492 30.4514L62.6338 30.165L71.3493 19.4941L72.5581 19.8255L73.5493 33.2707L72.4614 32.9562L72.1471 28.3228L66.6712 26.7615ZM72.0746 27.3625C71.8147 23.375 71.6394 21.4486 71.6454 20.5668C71.041 21.3868 69.4998 23.2795 67.324 26.009L72.0746 27.3625Z" fill="#797782"/>
<path d="M83.7462 21.8242L84.7012 21.9478L83.8309 27.6595C84.4353 26.8283 85.493 26.1375 87.3666 26.3846C89.6271 26.6766 91.0293 28.6311 90.6123 31.3606C90.1952 34.0901 88.382 36.022 85.6985 35.6738C84.0907 35.4604 83.2809 34.7359 82.9182 33.6576C82.8336 34.2192 82.7248 34.7808 82.6704 35.056L81.7275 34.9325C81.9028 33.9216 82.06 32.905 82.2111 31.8941L83.7462 21.8242ZM89.5969 31.2482C89.9353 29.0018 88.9622 27.4461 87.143 27.2046C84.7254 26.8901 83.6798 28.2941 83.3232 30.6248C83.0028 32.7253 83.4924 34.5281 85.8677 34.8426C87.7957 35.0954 89.21 33.7587 89.5969 31.2482Z" fill="#797782"/>
<path d="M98.0586 22.791L99.0256 22.7236L99.1707 24.459L98.2097 24.5321L98.0586 22.791ZM98.4212 27.0425L99.3822 26.9695L100.138 35.9442L99.1767 36.0172L98.4212 27.0425Z" fill="#797782"/>
<path d="M110.557 33.815L105.329 21.4593L106.23 21.1279L111.458 33.4555L110.557 33.815Z" fill="#797782"/>
<path d="M110.835 18.2809L111.488 17.6182L112.872 18.7976L112.219 19.4603L110.835 18.2809ZM114.232 21.162L114.884 20.4993L122.004 26.5817L121.352 27.2444L114.232 21.162Z" fill="#797782"/>
<path d="M118.668 15.6584L119.557 14.2038L116.934 12.8166L117.411 12.036L120.034 13.4176L121.17 11.5586L121.962 11.9742L120.826 13.8388L126.32 16.7199C127.263 17.2141 127.916 17.3096 128.369 16.5626C128.546 16.2919 128.681 15.9987 128.768 15.6921L129.505 16.0853C129.429 16.4577 129.28 16.8138 129.064 17.1355C128.46 18.1352 127.577 18.416 126.229 17.6971L120.348 14.6026L119.46 16.0572L118.668 15.6584Z" fill="#797782"/>
<path d="M124.162 6.04867C129.995 6.6103 132.424 6.77878 133.506 6.91357C132.6 6.12169 130.901 4.58846 126.779 0.864899L127.221 0L134.933 7.09891C137.084 9.09267 137.35 9.90702 136.631 11.3953C136.503 11.6455 136.358 11.8875 136.196 12.1198L135.326 11.7379C135.484 11.5102 135.623 11.2718 135.743 11.0246C136.347 9.85647 135.912 9.21623 134.413 7.8234L123.709 6.94727L124.162 6.04867Z" fill="#797782"/>
<path d="M9.4166 14.6027L2.7319 16.1921L4.15829 21.3084L11.4837 19.5506L11.5743 20.4548L3.3907 22.4205L0 10.2445L8.03251 8.3125L8.27428 9.18301L1.25111 10.8679L2.49014 15.3215L9.17484 13.7153L9.4166 14.6027Z" fill="#797782"/>
<path d="M18.005 10.8726C19.5946 14.978 20.6946 17.7805 21.0693 18.9262C21.2748 18.2579 22.3446 15.5565 24.1941 10.8389H25.2216L21.5952 19.8248H20.471L16.9775 10.8389L18.005 10.8726Z" fill="#797782"/>
<path d="M32.6986 16.3152C32.1547 18.5617 33.0311 20.2465 34.8382 20.6284C35.4121 20.7969 36.0298 20.7841 36.5951 20.5921C37.1603 20.4001 37.6413 20.0396 37.963 19.567L38.924 19.7748C38.5227 20.4766 37.8726 21.0278 37.0838 21.3349C36.295 21.642 35.4162 21.6861 34.5965 21.4596C31.7316 20.8475 31.1937 18.3146 31.7437 16.0905C32.3481 13.5857 34.2399 11.7211 36.9899 12.3108C39.891 12.9174 40.2355 15.4447 39.8306 17.0902C39.7701 17.3317 39.7097 17.5788 39.6311 17.8035L32.6986 16.3152ZM38.8635 16.8487C39.2745 15.1133 38.5976 13.5295 36.7481 13.1308C34.8987 12.732 33.6113 13.7823 32.9464 15.5795L38.8635 16.8487Z" fill="#797782"/>
<path d="M47.8207 18.4272C48.5097 17.0624 48.7878 16.4671 48.9207 16.1807L49.779 16.5513C49.6641 16.8209 49.4224 17.3488 48.8965 18.3935C49.4176 17.9081 50.0855 17.5819 50.8112 17.4585C51.5369 17.335 52.2859 17.4202 52.9581 17.7027L52.5169 18.5788C50.6372 17.8992 48.824 18.5395 47.8449 20.4771L45.7113 24.7117L44.835 24.3298L47.8207 18.4272Z" fill="#797782"/>
</g>
<defs>
<clipPath id="clip0_418_281">
<rect width="137" height="36" fill="white"/>
</clipPath>
</defs>
</svg>
